<?xml version="1.0" ?><!DOCTYPE svg  PUBLIC '-//W3C//DTD SVG 1.1//EN'  'http://www.w3.org/Graphics/SVG/1.1/DTD/svg11.dtd'><svg enable-background="new 0 0 512 512" height="512px" id="Calque_1" version="1.1" viewBox="0 0 512 512" width="512px" xml:space="preserve" xmlns="http://www.w3.org/2000/svg" xmlns:xlink="http://www.w3.org/1999/xlink"><path d="M501.155,272.528v-29.021c0.196-4.809-0.467-21.325-16.792-36.526c3.469-4.334,5.246-9.766,5.034-15.512  c-0.359-9.66-7.146-18.848-20.172-27.308c-2.318-1.518-4.986-2.498-7.73-2.841c-1.613-0.212-6.834-0.839-12.128-0.839  c-5.25,0-9.271,0.595-12.643,1.867c-3.288,1.236-6.151,3.177-8.987,6.322c-17.249-26.779-37.651-53.716-63.143-59.887  c-27.593-6.695-62.41-7.213-108.584-7.213l-6.223,0.005l-0.008,0.008c-18.576,0.022-37.674,0.174-54.28,1.042  c-19.744,1.031-35.026,2.988-48.091,6.158c-25.508,6.186-45.901,33.108-63.127,59.861c-3.061-3.435-5.888-5.139-8.991-6.295  c-3.386-1.274-7.41-1.868-12.664-1.868c-5.106,0-10.194,0.583-12.22,0.844c-2.748,0.367-5.313,1.321-7.626,2.833  c-13.029,8.461-19.818,17.65-20.176,27.317c-0.211,5.73,1.559,11.151,5.041,15.508c-16.302,15.203-16.98,31.75-16.798,36.502v29.041  c-5.436,6.033-7.759,13.952-7.542,20.682v87.059c0,16.631,13.513,30.161,30.123,30.161H80.97c14.121,0,26.003-9.778,29.247-22.928  h291.566c3.244,13.149,15.127,22.928,29.247,22.928h47.542c16.61,0,30.123-13.53,30.123-30.161V293.21  C508.911,286.481,506.588,278.561,501.155,272.528z" fill="#EA6226"/><linearGradient gradientUnits="userSpaceOnUse" id="SVGID_1_" x1="255.9998" x2="255.9997" y1="101.571" y2="410.429"><stop offset="0" style="stop-color:#FFFFFF;stop-opacity:0"/><stop offset="1" style="stop-color:#000000;stop-opacity:0.3"/></linearGradient><path d="M501.155,272.528v-29.021c0.196-4.809-0.467-21.325-16.792-36.526  c3.469-4.334,5.246-9.766,5.034-15.512c-0.359-9.66-7.146-18.848-20.172-27.308c-2.318-1.518-4.986-2.498-7.73-2.841  c-1.613-0.212-6.834-0.839-12.128-0.839c-5.25,0-9.271,0.595-12.643,1.867c-3.288,1.236-6.151,3.177-8.987,6.322  c-17.249-26.779-37.651-53.716-63.143-59.887c-27.593-6.695-62.41-7.213-108.584-7.213l-6.223,0.005l-0.008,0.008  c-18.576,0.022-37.674,0.174-54.28,1.042c-19.744,1.031-35.026,2.988-48.091,6.158c-25.508,6.186-45.901,33.108-63.127,59.861  c-3.061-3.435-5.888-5.139-8.991-6.295c-3.386-1.274-7.41-1.868-12.664-1.868c-5.106,0-10.194,0.583-12.22,0.844  c-2.748,0.367-5.313,1.321-7.626,2.833c-13.029,8.461-19.818,17.65-20.176,27.317c-0.211,5.73,1.559,11.151,5.041,15.508  c-16.302,15.203-16.98,31.75-16.798,36.502v29.041c-5.436,6.033-7.759,13.952-7.542,20.682v87.059  c0,16.631,13.513,30.161,30.123,30.161H80.97c14.121,0,26.003-9.778,29.247-22.928h291.566  c3.244,13.149,15.127,22.928,29.247,22.928h47.542c16.61,0,30.123-13.53,30.123-30.161V293.21  C508.911,286.481,506.588,278.561,501.155,272.528z" fill="url(#SVGID_1_)"/><g><path d="M447.674,257.668c-0.186,0.049-0.37,0.088-0.556,0.137c-0.839,0.215-1.688,0.42-2.537,0.635   c-0.292,0.078-0.585,0.146-0.878,0.225c-1.112,0.272-2.224,0.556-3.337,0.838c-0.185,0.039-0.361,0.088-0.546,0.138   c-0.976,0.244-1.951,0.487-2.917,0.731c-0.263,0.068-0.536,0.137-0.81,0.205c-1.055,0.272-2.098,0.536-3.103,0.79   c1.434,2.214,3.922,3.64,6.722,3.64C443.899,265.006,447.333,261.775,447.674,257.668z" fill="#FFFFFF"/><path d="M350.285,283.113c-4.751-6.342-32.868-8.967-94.285-8.967c-61.426,0-89.535,2.625-94.286,8.967   c-0.048,0.088-0.107,0.156-0.166,0.234c-0.273,0.419-0.449,0.858-0.527,1.307c-1.083,6.293,4.615,27.328,15.239,56.284   c5.259,14.294,11.571,15.571,12.976,15.123c0.332-0.107,0.683-0.155,1.025-0.155h131.477c0.42,0,0.605-0.011,0.967,0.126   c0.672,0.107,7.269,0.605,13.024-15.094c10.635-28.937,16.332-49.981,15.249-56.284c-0.078-0.448-0.254-0.888-0.527-1.307   C350.394,283.269,350.335,283.201,350.285,283.113z" fill="#FFFFFF"/><path d="M157.822,277.219c7.903-6.8,31.435-9.902,98.179-9.902c66.744,0,90.276,3.103,98.179,9.902   c10.624-4.399,20.313-7.375,28.85-8.878c9.902-16.664,26.439-43.738,42.46-66.539c-2.917-2.107-5.62-4.839-8.02-8.566   c-1.034-1.609-2.205-3.473-3.493-5.532c-11.521-18.342-32.967-52.479-54.528-57.709c-12.615-3.054-27.309-4.712-44.44-5.59   c-17.123-0.888-36.675-1.005-58.997-1.005c-0.01,0-0.01,0.01-0.02,0.01c-44.646,0-78.207,0.468-103.437,6.585   c-21.572,5.229-43.017,39.387-54.539,57.729c-1.288,2.049-2.449,3.912-3.483,5.512c-2.4,3.728-5.103,6.459-8.02,8.566   c16.04,22.82,32.557,49.875,42.46,66.539C137.519,269.844,147.197,272.82,157.822,277.219z M103.478,200.447   c-1.19,0-2.293-0.615-2.917-1.629c-0.644-1.064-0.673-2.391-0.059-3.473c2.819-4.957,27.923-48.636,42.831-55.827   c16.137-7.775,55.095-11.893,112.667-11.893c57.563,0,96.53,4.118,112.667,11.893c14.907,7.191,40.021,50.87,42.83,55.827   c0.615,1.083,0.596,2.409-0.058,3.473c-0.625,1.015-1.728,1.629-2.908,1.629h-0.156c-11.561-0.507-149.37-3.025-152.375-3.083   c-2.995,0.059-140.814,2.576-152.375,3.083H103.478z" fill="#FFFFFF"/><path d="M426.2,263.122c-0.399,0.107-0.8,0.205-1.189,0.313c2.507,5.718,8.264,9.609,14.712,9.609   c8.84,0,16.03-7.2,16.03-16.059c0-0.439-0.021-0.868-0.06-1.297h-0.009c-0.391,0.097-0.79,0.195-1.19,0.292   c0.02,0.332,0.039,0.664,0.039,1.005c0,8.187-6.645,14.85-14.82,14.85C433.752,271.835,428.542,268.332,426.2,263.122z" fill="#FFFFFF"/><path d="M467.256,193.412c0.175-0.185,0.351-0.429,0.331-1.132c-0.098-1.62-4.683-6.078-9.639-9.405   c-5.104-0.604-11.396-0.819-13.445-0.126c-0.937,0.653-3.482,4.01-7.756,12.557h19.796   C464.27,195.305,466.573,194.115,467.256,193.412z" fill="#FFFFFF"/><path d="M396.141,264.41c4.322-1.444,12.732-3.814,23.68-6.664l2.536-0.673c1.327-0.36,2.683-0.712,4.029-1.063   c0.42-0.107,0.82-0.225,1.239-0.332c7.562-1.921,15.464-3.912,22.088-5.551l2.283-0.566c1.99-0.488,3.854-0.946,5.522-1.366   c0.009,0,0.009,0,0.009,0c5.952-1.463,9.777-2.38,9.777-2.38c0.994-0.244,2.068-0.02,2.888,0.614   c0.819,0.625,1.307,1.601,1.327,2.635c0,0.048,0.078,4.107,0.116,10.391c2.361-0.889,4.928-1.708,7.688-2.479v-13.981   c0-0.117,0-0.234,0.02-0.351c0.039-0.498,0.906-12.898-15.483-24.167c-7.435-5.113-14.47-7.239-21.27-9.298   c-3.844-1.17-7.6-2.312-11.161-3.941c-14.205,20.156-28.889,43.845-38.938,60.597C393.634,265.327,394.843,264.849,396.141,264.41z   " fill="#FFFFFF"/><path d="M440.738,290.322c-7.122,0-30.723,4.099-49.689,7.387c-5.99,1.033-11.688,2.02-16.254,2.771l-13.591,31.679   c-0.059,0.137-0.117,0.264-0.195,0.391l-8.907,20.781c87.798-0.605,104.433-16.518,107.447-21.465   c0.049-0.078,0.098-0.165,0.136-0.253c0.05-0.107,0.108-0.205,0.156-0.302c0.897-1.913,2.167-6.362,3.201-16.733   c0.448-4.615,0.828-10.146,1.189-17.396c0.255-6.02,0.43-12.771,0.527-20.371C459.294,283.991,452.806,290.322,440.738,290.322z" fill="#FFFFFF"/><path d="M486.155,333.124c0,42.597-16.646,48.471-34.636,48.471c-2.215,0-4.196,0.019-5.981,0.038   c-1.355,0.02-2.634,0.029-3.824,0.029c-8.303,0-12.771-0.712-15.259-6.751c-0.283-0.342-1.464-0.995-3.717-1.542v6.898   c0,4.595,3.717,8.332,8.293,8.332h47.542c4.576,0,8.293-3.737,8.293-8.332v-87.446c0-0.069,0-0.138,0.01-0.205   c0.011-0.313,0.039-1.981-0.721-3.679V333.124z" fill="#FFFFFF"/><path d="M32.677,242.994v13.981c2.761,0.771,5.327,1.59,7.688,2.479c0.039-6.283,0.117-10.342,0.126-10.391   c0.02-1.034,0.507-2.01,1.327-2.635c0.819-0.634,1.883-0.858,2.888-0.614c0,0,3.825,0.917,9.747,2.371c0.01,0,0.01,0,0.02,0.009   h0.01c1.083,0.273,2.263,0.566,3.492,0.869c0.761,0.185,1.532,0.38,2.332,0.575l1.98,0.488c6.683,1.649,14.566,3.639,22.079,5.551   c1.649,0.42,3.259,0.85,4.859,1.279c0.137,0.038,0.292,0.077,0.429,0.116l2.546,0.673c10.937,2.85,19.347,5.22,23.659,6.664   c1.298,0.439,2.508,0.917,3.649,1.415c-10.049-16.742-24.713-40.412-38.938-60.587c-3.552,1.629-7.308,2.78-11.162,3.941   c-6.8,2.059-13.834,4.196-21.259,9.298c-16.4,11.269-15.532,23.668-15.483,24.196C32.677,242.77,32.677,242.897,32.677,242.994z" fill="#FFFFFF"/><path d="M70.287,381.662c-1.2,0-2.468-0.01-3.824-0.029c-1.786-0.02-3.766-0.038-5.98-0.038   c-17.991,0-34.635-5.874-34.635-48.471v-44.187c-0.761,1.707-0.732,3.386-0.722,3.707c0,0.05,0.01,0.128,0.01,0.177v87.446   c0,4.595,3.717,8.332,8.293,8.332H80.97c4.576,0,8.293-3.737,8.293-8.332v-6.898c-2.254,0.547-3.434,1.2-3.708,1.542   C83.058,380.95,78.59,381.662,70.287,381.662z" fill="#FFFFFF"/><path d="M432.738,372.248c0.995,2.438,2.176,2.683,12.723,2.556c1.805-0.02,3.813-0.039,6.059-0.039   c11.073,0,27.806,0,27.806-41.641v-69.036c-2.811,0.84-5.386,1.747-7.659,2.702c-0.049,11.991-0.244,22.05-0.614,30.704   c-0.371,7.385-0.751,13.024-1.22,17.757c-0.927,9.346-2.195,15.581-3.863,19.073c-0.02,0.049-0.049,0.107-0.078,0.156l-0.127,0.233   c-0.127,0.255-0.254,0.499-0.391,0.723c-9.746,15.951-51.815,24.742-118.462,24.742c-1.142,0-2.215-0.586-2.85-1.541   c-0.633-0.957-0.741-2.166-0.282-3.22l11.122-25.943c0.059-0.136,0.117-0.263,0.195-0.39l14.195-33.103l6.566-15.289   c0.039-0.116,0.498-1.2,1.552-2.8c0.019-0.02,0.039-0.059,0.049-0.068c0.282-0.488,0.575-1.005,0.888-1.532   c-6.322,1.532-13.249,3.845-20.704,6.889c0.03,0.106,0.05,0.215,0.069,0.322c1.678,9.805-7.543,37.922-15.571,59.786   c-6.342,17.278-14.898,19.582-19.025,19.582c-0.722,0-1.308-0.069-1.717-0.137H190.613c-0.42,0.067-1.005,0.137-1.727,0.137   c-4.117,0-12.684-2.304-19.035-19.582c-8.029-21.874-17.24-50.001-15.562-59.786c0.02-0.107,0.039-0.216,0.059-0.322   c-7.444-3.044-14.371-5.356-20.693-6.889c0.312,0.527,0.605,1.044,0.888,1.532c0.01,0.019,0.029,0.039,0.039,0.058   c1.073,1.62,1.542,2.733,1.6,2.879l20.723,48.323c0.078,0.117,0.146,0.254,0.205,0.39l10.985,25.621   c0.273,0.488,0.429,1.063,0.429,1.669c0,1.883-1.532,3.414-3.415,3.414c-0.01,0-0.01,0-0.02,0   c-66.646,0-108.715-8.791-118.462-24.752c-0.117-0.186-0.253-0.43-0.38-0.683l-0.117-0.225c-0.039-0.059-0.069-0.137-0.108-0.205   c-1.668-3.492-2.927-9.728-3.854-19.063c-0.458-4.693-0.849-10.322-1.219-17.729c-0.371-8.722-0.566-18.78-0.615-30.732   c-2.273-0.955-4.849-1.862-7.659-2.702v69.036c0,41.641,16.732,41.641,27.806,41.641c2.244,0,4.253,0.02,6.059,0.039   c10.537,0.117,11.727-0.107,12.712-2.537c1.405-3.414,5.795-5.531,13.054-6.332c1.561-0.185,2.722-0.253,2.771-0.253   c0.059-0.01,0.126-0.01,0.185-0.01H255.99c0.01,0,0.01,0,0.02,0h160.727c0.059,0,0.127,0,0.187,0.01   c0.048,0,1.209,0.068,2.819,0.264C426.951,366.725,431.342,368.852,432.738,372.248z" fill="#FFFFFF"/><path d="M67.497,182.739c-2.254-0.751-9.015-0.391-13.444,0.136c-4.956,3.337-9.542,7.796-9.64,9.405   c-0.02,0.703,0.166,0.947,0.342,1.132c0.673,0.703,2.976,1.893,10.703,1.893h19.795C70.98,186.759,68.394,183.373,67.497,182.739z" fill="#FFFFFF"/><path d="M71.263,290.322c-12.059,0-18.557-6.321-24.021-13.512c0.098,7.591,0.273,14.342,0.537,20.392   c0.361,7.278,0.741,12.81,1.181,17.385c1.034,10.322,2.293,14.781,3.19,16.713c0.059,0.107,0.117,0.215,0.176,0.331   c0.029,0.069,0.068,0.138,0.107,0.206c3.044,4.976,19.669,20.888,107.467,21.493l-8.907-20.781   c-0.069-0.117-0.137-0.254-0.195-0.391l-13.591-31.679c-4.566-0.751-10.254-1.737-16.245-2.771   C101.995,294.421,78.385,290.322,71.263,290.322z" fill="#FFFFFF"/><path d="M79.009,261.366c-4.644-1.181-9.834-2.488-14.683-3.698c0.342,4.107,3.776,7.338,7.952,7.338   C75.077,265.006,77.575,263.58,79.009,261.366z" fill="#FFFFFF"/><path d="M56.921,255.844c-0.205-0.059-0.42-0.107-0.615-0.156c-0.039,0.429-0.059,0.858-0.059,1.297   c0,8.858,7.191,16.059,16.03,16.059c6.449,0,12.206-3.892,14.712-9.609c-0.39-0.107-0.79-0.205-1.19-0.313   c-2.341,5.21-7.551,8.713-13.522,8.713c-8.167,0-14.811-6.663-14.811-14.85c0-0.341,0.02-0.673,0.039-1.005   C57.311,255.931,57.116,255.883,56.921,255.844z" fill="#FFFFFF"/><path d="M408.375,200.447h0.156c1.181,0,2.283-0.615,2.908-1.629c0.653-1.064,0.673-2.391,0.058-3.473   c-2.81-4.957-27.923-48.636-42.83-55.827c-16.137-7.775-55.104-11.893-112.667-11.893c-57.572,0-96.53,4.118-112.667,11.893   c-14.907,7.191-40.011,50.87-42.831,55.827c-0.614,1.083-0.585,2.409,0.059,3.473c0.624,1.015,1.727,1.629,2.917,1.629h0.146   c11.562-0.507,149.38-3.025,152.375-3.083C259.005,197.422,396.815,199.94,408.375,200.447z M109.517,193.432   c9.103-15.308,27.045-43.065,36.782-47.757c8.683-4.195,34.489-11.22,109.701-11.22c75.202,0,101.018,7.025,109.701,11.22   c9.736,4.692,27.679,32.45,36.781,47.757c-29.357-0.751-141.204-2.8-146.414-2.897c-0.029,0-0.049,0.01-0.068,0.01   s-0.039-0.01-0.059-0.01C250.722,190.632,138.875,192.681,109.517,193.432z" fill="#052C49"/><path d="M486.155,279.688v-36.557c0.146-2.098,0.487-17.289-18.431-30.284c-8.293-5.708-16.186-8.098-23.151-10.206   c-0.566-0.176-1.123-0.341-1.669-0.507h13.64c8.263,0,12.937-1.19,15.63-3.98c1.551-1.62,2.322-3.737,2.234-6.127   c-0.234-6.303-10.304-13.308-13.387-15.308c-0.429-0.283-0.907-0.459-1.414-0.518c-2.127-0.283-12.947-1.57-17.601,0.186   c-1.532,0.576-4.693,1.756-13.104,19.435c-2.087-1.609-3.98-3.629-5.697-6.283c-1.015-1.59-2.175-3.434-3.454-5.463   c-12.029-19.161-34.43-54.841-58.694-60.714c-25.972-6.302-59.924-6.79-105.047-6.79c-0.01,0-0.01,0.01-0.02,0.01   c-22.567,0-42.333,0.117-59.709,1.024c-17.376,0.907-32.353,2.605-45.338,5.756c-24.264,5.884-46.674,41.563-58.704,60.734   c-1.278,2.029-2.429,3.863-3.444,5.444c-1.717,2.654-3.61,4.674-5.688,6.283c-8.391-17.668-11.688-18.908-13.103-19.435   c-4.664-1.756-15.483-0.468-17.61-0.195c-0.507,0.068-0.985,0.244-1.415,0.527c-3.083,2-13.152,9.005-13.386,15.308   c-0.088,2.39,0.683,4.507,2.234,6.127c2.692,2.79,7.366,3.98,15.63,3.98h13.649c-0.546,0.166-1.112,0.332-1.678,0.507   c-6.957,2.108-14.85,4.498-23.152,10.206c-18.908,12.995-18.566,28.186-18.43,30.284v36.557c-6.264,3.015-7.718,9.679-7.542,13.229   v87.35c0,8.361,6.781,15.161,15.123,15.161H80.97c8.342,0,15.123-6.8,15.123-15.161v-7.767H255.99c0.01,0,0.01,0,0.02,0h159.898   v7.767c0,8.361,6.779,15.161,15.122,15.161h47.542c8.342,0,15.123-6.8,15.123-15.161v-87.35   C493.87,289.367,492.417,282.703,486.155,279.688z M444.503,182.749c2.049-0.693,8.342-0.478,13.445,0.126   c4.956,3.327,9.541,7.786,9.639,9.405c0.02,0.703-0.156,0.947-0.331,1.132c-0.684,0.703-2.986,1.893-10.713,1.893h-19.796   C441.021,186.759,443.567,183.402,444.503,182.749z M431.43,205.238c3.562,1.629,7.317,2.771,11.161,3.941   c6.8,2.059,13.835,4.186,21.27,9.298c16.39,11.269,15.522,23.668,15.483,24.167c-0.02,0.117-0.02,0.234-0.02,0.351v13.981   c-2.761,0.771-5.327,1.59-7.688,2.479c-0.038-6.283-0.116-10.342-0.116-10.391c-0.021-1.034-0.508-2.01-1.327-2.635   c-0.819-0.634-1.894-0.858-2.888-0.614c0,0-3.825,0.917-9.777,2.38c0,0,0,0-0.009,0c-1.669,0.42-3.532,0.878-5.522,1.366   l-2.283,0.566c-6.624,1.639-14.526,3.63-22.088,5.551c-0.419,0.107-0.819,0.225-1.239,0.332c-1.347,0.352-2.702,0.703-4.029,1.063   l-2.536,0.673c-10.947,2.85-19.357,5.22-23.68,6.664c-1.298,0.439-2.507,0.917-3.648,1.425   C402.541,249.083,417.225,225.394,431.43,205.238z M462.329,268.556c-5.962,8.342-10.674,14.937-21.592,14.937   c-7.707,0-30.635,3.972-50.86,7.483c-4.204,0.731-8.264,1.435-11.883,2.049l4.078-9.503c0.02-0.029,0.039-0.058,0.059-0.097   c0.098-0.195,0.478-0.858,1.132-1.972c0.028-0.049,0.049-0.097,0.077-0.146c1.854-2.703,6.196-7.445,14.977-10.421   c3.756-1.258,10.801-3.258,20.05-5.697c3.336,8.684,11.805,14.684,21.356,14.684c12.605,0,22.859-10.264,22.859-22.889   c0-0.985-0.078-1.971-0.205-2.946c0.859-0.215,1.659-0.41,2.371-0.585c0.039,2.712,0.078,6.566,0.088,11.113v0.536   C463.978,266.263,463.138,267.425,462.329,268.556z M464.758,276.81c-0.098,7.601-0.272,14.352-0.527,20.371   c-0.361,7.249-0.741,12.78-1.189,17.396c-1.034,10.371-2.304,14.82-3.201,16.733c-0.048,0.097-0.106,0.194-0.156,0.302   c-0.038,0.088-0.087,0.175-0.136,0.253c-3.015,4.947-19.649,20.859-107.447,21.465l8.907-20.781   c0.078-0.127,0.137-0.254,0.195-0.391l13.591-31.679c4.566-0.751,10.264-1.737,16.254-2.771   c18.967-3.288,42.567-7.387,49.689-7.387C452.806,290.322,459.294,283.991,464.758,276.81z M439.713,271.835   c8.176,0,14.82-6.663,14.82-14.85c0-0.341-0.02-0.673-0.039-1.005c0.4-0.098,0.8-0.195,1.19-0.292h0.009   c0.039,0.429,0.06,0.858,0.06,1.297c0,8.858-7.19,16.059-16.03,16.059c-6.448,0-12.205-3.892-14.712-9.609   c0.39-0.107,0.79-0.205,1.189-0.313C428.542,268.332,433.752,271.835,439.713,271.835z M432.991,261.366   c1.005-0.254,2.048-0.518,3.103-0.79c0.273-0.068,0.547-0.137,0.81-0.205c0.966-0.244,1.941-0.487,2.917-0.731   c0.185-0.05,0.361-0.099,0.546-0.138c1.113-0.282,2.225-0.565,3.337-0.838c0.293-0.078,0.586-0.146,0.878-0.225   c0.85-0.215,1.698-0.42,2.537-0.635c0.186-0.049,0.37-0.088,0.556-0.137c-0.341,4.107-3.775,7.338-7.961,7.338   C436.913,265.006,434.425,263.58,432.991,261.366z M94.532,193.237c1.034-1.6,2.195-3.463,3.483-5.512   c11.522-18.342,32.967-52.499,54.539-57.729c25.23-6.117,58.792-6.585,103.437-6.585c0.01,0,0.01-0.01,0.02-0.01   c22.322,0,41.874,0.117,58.997,1.005c17.132,0.878,31.825,2.537,44.44,5.59c21.562,5.229,43.007,39.367,54.528,57.709   c1.288,2.059,2.459,3.922,3.493,5.532c2.399,3.728,5.103,6.459,8.02,8.566c-16.021,22.8-32.558,49.875-42.46,66.539   c-8.537,1.503-18.226,4.479-28.85,8.878c-7.902-6.8-31.435-9.902-98.179-9.902c-66.744,0-90.276,3.103-98.179,9.902   c-10.625-4.399-20.303-7.375-28.85-8.878c-9.903-16.664-26.42-43.719-42.46-66.539C89.429,199.696,92.132,196.964,94.532,193.237z    M335.73,340.938c-5.756,15.699-12.353,15.201-13.024,15.094c-0.361-0.137-0.547-0.126-0.967-0.126H190.262   c-0.342,0-0.693,0.048-1.025,0.155c-1.405,0.448-7.717-0.829-12.976-15.123c-10.625-28.956-16.322-49.991-15.239-56.284   c0.078-0.448,0.254-0.888,0.527-1.307c0.059-0.078,0.117-0.146,0.166-0.234c4.751-6.342,32.86-8.967,94.286-8.967   c61.417,0,89.534,2.625,94.285,8.967c0.05,0.088,0.108,0.156,0.166,0.234c0.273,0.419,0.449,0.858,0.527,1.307   C352.062,290.957,346.365,312.002,335.73,340.938z M122.133,290.976c-20.235-3.512-43.163-7.483-50.87-7.483   c-10.917,0-15.63-6.595-21.591-14.937c-0.81-1.132-1.649-2.293-2.507-3.454v-0.526c0.009-4.557,0.048-8.41,0.087-11.123   c0.712,0.175,1.512,0.371,2.371,0.585c-0.127,0.976-0.205,1.961-0.205,2.946c0,12.625,10.254,22.889,22.859,22.889   c9.551,0,18.02-6,21.357-14.684c9.249,2.439,16.303,4.439,20.049,5.688c8.752,2.966,13.083,7.688,14.967,10.409   c0.029,0.049,0.058,0.108,0.088,0.166c0.302,0.508,0.995,1.698,1.132,1.961c0.02,0.039,0.048,0.089,0.078,0.128l4.059,9.482   C130.386,292.411,126.338,291.708,122.133,290.976z M137.206,300.479l13.591,31.679c0.059,0.137,0.126,0.273,0.195,0.391   l8.907,20.781c-87.798-0.605-104.422-16.518-107.467-21.493c-0.039-0.068-0.078-0.137-0.107-0.206   c-0.059-0.116-0.117-0.224-0.176-0.331c-0.897-1.932-2.156-6.391-3.19-16.713c-0.439-4.575-0.819-10.106-1.181-17.385   c-0.263-6.05-0.439-12.801-0.537-20.392c5.463,7.19,11.961,13.512,24.021,13.512c7.122,0,30.732,4.099,49.699,7.387   C126.952,298.742,132.64,299.728,137.206,300.479z M72.278,271.835c5.971,0,11.181-3.503,13.522-8.713   c0.4,0.107,0.8,0.205,1.19,0.313c-2.507,5.718-8.264,9.609-14.712,9.609c-8.839,0-16.03-7.2-16.03-16.059   c0-0.439,0.02-0.868,0.059-1.297c0.195,0.048,0.41,0.097,0.615,0.156c0.195,0.039,0.39,0.088,0.585,0.137   c-0.02,0.332-0.039,0.664-0.039,1.005C57.467,265.172,64.111,271.835,72.278,271.835z M64.326,257.668   c4.849,1.21,10.04,2.518,14.683,3.698c-1.434,2.214-3.932,3.64-6.731,3.64C68.102,265.006,64.668,261.775,64.326,257.668z    M55.458,195.305c-7.728,0-10.03-1.19-10.703-1.893c-0.176-0.185-0.361-0.429-0.342-1.132c0.098-1.609,4.684-6.068,9.64-9.405   c4.429-0.527,11.19-0.887,13.444-0.136c0.897,0.634,3.483,4.02,7.756,12.566H55.458z M48.15,218.477   c7.425-5.103,14.459-7.239,21.259-9.298c3.854-1.161,7.61-2.312,11.162-3.941c14.225,20.176,28.888,43.845,38.938,60.587   c-1.141-0.498-2.351-0.976-3.649-1.415c-4.312-1.444-12.722-3.814-23.659-6.664l-2.546-0.673c-0.137-0.039-0.292-0.078-0.429-0.116   c-1.6-0.43-3.21-0.859-4.859-1.279c-7.512-1.912-15.396-3.902-22.079-5.551l-1.98-0.488c-0.8-0.195-1.571-0.39-2.332-0.575   c-1.229-0.303-2.41-0.596-3.492-0.869h-0.01c-0.009-0.009-0.009-0.009-0.02-0.009c-5.922-1.454-9.747-2.371-9.747-2.371   c-1.005-0.244-2.068-0.02-2.888,0.614c-0.82,0.625-1.308,1.601-1.327,2.635c-0.009,0.048-0.087,4.107-0.126,10.391   c-2.361-0.889-4.927-1.708-7.688-2.479v-13.981c0-0.098,0-0.224-0.01-0.322C32.618,242.145,31.749,229.745,48.15,218.477z    M89.263,380.267c0,4.595-3.717,8.332-8.293,8.332H33.427c-4.576,0-8.293-3.737-8.293-8.332v-87.446c0-0.049-0.01-0.127-0.01-0.177   c-0.01-0.321-0.039-2,0.722-3.707v44.187c0,42.597,16.645,48.471,34.635,48.471c2.215,0,4.195,0.019,5.98,0.038   c1.356,0.02,2.625,0.029,3.824,0.029c8.303,0,12.771-0.712,15.269-6.751c0.273-0.342,1.454-0.995,3.708-1.542V380.267z    M419.742,365.945c-1.61-0.195-2.771-0.264-2.819-0.264c-0.06-0.01-0.128-0.01-0.187-0.01H256.01c-0.01,0-0.01,0-0.02,0H95.263   c-0.059,0-0.126,0-0.185,0.01c-0.049,0-1.21,0.068-2.771,0.253c-7.259,0.801-11.649,2.918-13.054,6.332   c-0.985,2.43-2.176,2.654-12.712,2.537c-1.805-0.02-3.815-0.039-6.059-0.039c-11.074,0-27.806,0-27.806-41.641v-69.036   c2.81,0.84,5.385,1.747,7.659,2.702c0.049,11.952,0.244,22.011,0.615,30.732c0.371,7.406,0.761,13.035,1.219,17.729   c0.927,9.336,2.185,15.571,3.854,19.063c0.039,0.068,0.069,0.146,0.108,0.205l0.117,0.225c0.127,0.253,0.263,0.497,0.38,0.683   c9.747,15.961,51.816,24.752,118.462,24.752c0.01,0,0.01,0,0.02,0c1.883,0,3.415-1.531,3.415-3.414   c0-0.605-0.156-1.181-0.429-1.669l-10.985-25.621c-0.059-0.136-0.127-0.272-0.205-0.39l-20.723-48.323   c-0.059-0.146-0.527-1.259-1.6-2.879c-0.01-0.019-0.029-0.039-0.039-0.058c-0.283-0.488-0.576-1.005-0.888-1.532   c6.322,1.532,13.25,3.845,20.693,6.889c-0.02,0.106-0.039,0.215-0.059,0.322c-1.678,9.785,7.532,37.912,15.562,59.786   c6.351,17.278,14.917,19.582,19.035,19.582c0.722,0,1.307-0.069,1.727-0.137h130.785c0.409,0.067,0.995,0.137,1.717,0.137   c4.127,0,12.684-2.304,19.025-19.582c8.028-21.864,17.249-49.981,15.571-59.786c-0.02-0.107-0.039-0.216-0.069-0.322   c7.455-3.044,14.382-5.356,20.704-6.889c-0.313,0.527-0.605,1.044-0.888,1.532c-0.01,0.01-0.03,0.049-0.049,0.068   c-1.054,1.6-1.513,2.684-1.552,2.8l-6.566,15.289l-14.195,33.103c-0.078,0.127-0.137,0.254-0.195,0.39l-11.122,25.943   c-0.459,1.054-0.351,2.263,0.282,3.22c0.635,0.955,1.708,1.541,2.85,1.541c66.646,0,108.716-8.791,118.462-24.742   c0.137-0.224,0.264-0.468,0.391-0.723l0.127-0.233c0.029-0.049,0.059-0.107,0.078-0.156c1.668-3.492,2.937-9.728,3.863-19.073   c0.469-4.732,0.849-10.372,1.22-17.757c0.37-8.654,0.565-18.713,0.614-30.704c2.273-0.955,4.849-1.862,7.659-2.702v69.036   c0,41.641-16.732,41.641-27.806,41.641c-2.245,0-4.254,0.02-6.059,0.039c-10.547,0.127-11.728-0.117-12.723-2.556   C431.342,368.852,426.951,366.725,419.742,365.945z M486.875,292.616c-0.01,0.067-0.01,0.136-0.01,0.205v87.446   c0,4.595-3.717,8.332-8.293,8.332h-47.542c-4.576,0-8.293-3.737-8.293-8.332v-6.898c2.253,0.547,3.434,1.2,3.717,1.542   c2.487,6.039,6.956,6.751,15.259,6.751c1.19,0,2.469-0.01,3.824-0.029c1.785-0.02,3.767-0.038,5.981-0.038   c17.99,0,34.636-5.874,34.636-48.471v-44.187C486.914,290.635,486.886,292.303,486.875,292.616z" fill="#052C49"/></g></svg>